<?xml version="1.0" encoding="UTF-8"?>
<svg version="1.1" viewBox="0 0 2048 2048" width="512" height="512" xmlns="http://www.w3.org/2000/svg">
<path transform="translate(1252)" d="m0 0h4l7 8 39 39 15 11 16 9 16 6 17 4 6 1h31l20-4 17-6 17-9 11-8 10-9 8-7 27-27 7-8h4l7 8 5 4 7 8 7 7 6 5 7 8 43 43 6 5 6 7 6 5 6 7 6 5 6 7 6 5 6 7 6 5 6 7 6 5 6 7 6 5 6 7 6 5 6 7 6 5 6 7 6 5 6 7 6 5 6 7 6 5 6 7 6 5 6 7 6 5 6 7 6 5 6 7 6 5 6 7 6 5 6 7 6 5 6 7 6 5 6 7 6 5 6 7 6 5 6 7 6 5 6 7 6 5 6 7 6 5 6 7 6 5 6 7 6 5 6 7 6 5 6 7 6 5 6 7 6 5 6 7 6 5 6 7 6 5 6 7 6 5 6 7 6 5 6 7 6 5 6 7 32 32 2 1v4l-8 7-35 35-7 8-10 14-9 17-6 18-3 16-1 9v18l4 24 6 17 8 16 10 14 12 13 37 37 2 1-1 5-10 9-1 2h-2l-2 4-165 165-4-2-80-80-4 1-80 80 2 4 80 80-1 4-7 6-7 8-964 964h-2v2l-4 4h-4l-4-6-33-33-8-7-11-9-11-7-16-8-15-5-14-3-9-1h-22l-19 3-17 5-16 8-14 9-14 12-40 40-1 2h-4l-7-8-517-517 1-4 8-7 34-34 9-11 7-10 8-14 7-19 4-20 1-20-2-19-5-19-5-13-8-15-8-11-9-10-11-12-20-20-6-5-5-5 1-4 984-984 4 1 73 73 2 1v2l4 2 1 2 4 1v-2l8-7 72-72-1-4-81-81 2-4zm-7 357-8 7-76 76 6 7 71 71h2l2 4 4 4h2v2l4-1 81-81-3-5-84-84zm177 179-5 5-1 3h-2l-7 8-67 67 9 10 73 73h2l2 4 4 1 82-82-3-5-84-84zm-221 172-126 126-3 2 1 4 33 33 4-1 6-5 7-8 5-5 5-4 5-6 5-5 6-5 7 6 92 92h2l2 4h4l44-44-1-4-78-78-5-6-8-7-10-10v-3l4-3v-2h2v-2h2v-2l3-1 5-6 6-5 7-8 10-10-2-4-10-10-7-8-3-3h-2v-2l-8-7-2-3zm400 7-63 63v2h-2v2h-2v2l-4 2v2h-2l-4 4v2l-4 2v4l78 78h2v2l5 5h4l25-25 6-5 6-7 6-5 6-7 6-5 6-7 6-5 7-8 6-5 2-4-86-86zm-556 149-111 111-3 2 1 4 130 130h2l2 4h2l2 4 4-1 114-114-1-4-32-32-4 1-3 3v2l-4 2-61 61-7-6-11-11 1-4 8-7 49-49-2-4-31-31-7 6-52 52-4-1-13-13 1-4 10-9 15-15v-2h2v-2h2v-2h2v-2h2v-2h2v-2h2l7-8 15-15 6-5-2-5-6-5-7-8-19-19zm-141 142-8 7-42 42v17l3 61 1 15 1 5-6-4-11-12-30-30-5-4-7 6-40 40 140 140 4-1 43-43-2-5-6-5-7-8-15-15h-2l-2-7v-19l50 7 31 4 8-7 46-46-1-2-102-15-31-4-3-1-6-116zm-172 197-16 3-16 6-17 10-13 11-6 5-7 8-8 10-9 15-5 11-4 13-3 18v14l3 17 6 17 8 14 8 10 8 9 14 11 14 8 16 6 18 3h16l13-2 17-5 16-8 11-7 11-9 13-13 11-15 6-11 6-14 4-18v-25l-54 3-2 1-1 19-4 13-6 10-3 3v2h-2v2l-4 2-10 6-10 3h-17l-13-5-11-8-7-7-7-11-4-9-1-4v-15l4-12 7-11 9-8 14-7 11-2h15l1-1 3-45v-11zm-178 152-6 5-7 8-33 33 6 7 20 20h2l2 4h2l2 4h2l2 4h2l2 4h2l2 4h2l2 4h2l1 3 6 5 3 4h2l2 4h2l2 4h2l2 4h2l2 4h2l2 4h2l2 4h2l2 4h2l2 4h2l1 3 6 5 13 13 5 6 6 5 13 13 4-1 44-44-3-5-136-136zm-74 75-8 6-7 8-115 115 6 7 29 29h3l7-8 31-31 4 1 4 5 8 7 89 89 4-1 44-44-2-4-100-100 1-5 8-7v-2l3-1 5-6 7-6 7-8 5-4 3-3-2-4-33-33z"/>
<path transform="translate(1,1525)" d="m0 0"/>
<path transform="translate(1,1257)" d="m0 0"/>
<path transform="translate(903,1008)" d="m0 0"/>
<path transform="translate(1424,537)" d="m0 0"/>
<path transform="translate(2047,522)" d="m0 0"/>
</svg>
